PathFileType	4	(X/Y/Z)
DataRate	CameraRate	NumFrames	NumMarkers	Units	OrigDataRate	OrigDataStartFrame	OrigNumFrames	
  100.0	  100.0	    5	     56	     mm	  100.0	      95	    253
Frame#	Time	LASI			RASI			LPSI			RPSI			RTH1			RTH2			RTH3			RLFC			RMFC			LTH1			LTH2			LTH3			LLFC			LMFC			RTB1			RTB2			RTB3			RLMAL			RMMAL			LTB1			LTB2			LTB3			LMMAL			LLMAL			RCAL			RTOE			RMT5			LCAL			LTOE			LMT5			LACR			RACR			CLAV			C7			LASH			LPSH			RASH			RPSH			RUA1			RUA2			RUA3			RLEL			RMEL			LUA1			LUA2			LUA3			LLEL			LMEL			RFAsuperior			RFAradius			RFAulna			LFAsuperior			LFAradius			LFAulna			RHJC			LHJC			
		X1	Y1	Z1	X2	Y2	Z2	X3	Y3	Z3	X4	Y4	Z4	X5	Y5	Z5	X6	Y6	Z6	X7	Y7	Z7	X8	Y8	Z8	X9	Y9	Z9	X10	Y10	Z10	X11	Y11	Z11	X12	Y12	Z12	X13	Y13	Z13	X14	Y14	Z14	X15	Y15	Z15	X16	Y16	Z16	X17	Y17	Z17	X18	Y18	Z18	X19	Y19	Z19	X20	Y20	Z20	X21	Y21	Z21	X22	Y22	Z22	X23	Y23	Z23	X24	Y24	Z24	X25	Y25	Z25	X26	Y26	Z26	X27	Y27	Z27	X28	Y28	Z28	X29	Y29	Z29	X30	Y30	Z30	X31	Y31	Z31	X32	Y32	Z32	X33	Y33	Z33	X34	Y34	Z34	X35	Y35	Z35	X36	Y36	Z36	X37	Y37	Z37	X38	Y38	Z38	X39	Y39	Z39	X40	Y40	Z40	X41	Y41	Z41	X42	Y42	Z42	X43	Y43	Z43	X44	Y44	Z44	X45	Y45	Z45	X46	Y46	Z46	X47	Y47	Z47	X48	Y48	Z48	X49	Y49	Z49	X50	Y50	Z50	X51	Y51	Z51	X52	Y52	Z52	X53	Y53	Z53	X54	Y54	Z54	X55	Y55	Z55	X56	Y56	Z56	

112	1.12000	507.25533	1049.99962	-632.47972	525.79331	1043.59226	-361.79840	338.33968	1066.39180	-538.21711	345.73124	1062.70695	-440.13099	422.78871	861.43031	-304.80767	504.10273	759.64685	-305.93266	427.01238	639.35920	-320.14652	465.95821	520.03922	-314.04629	455.54966	509.12102	-438.83799	427.60336	862.79872	-678.09789	501.09005	737.30189	-682.38956	444.40016	617.72477	-671.76053	464.55262	526.50532	-676.76081	456.02056	517.14491	-550.62227	482.42495	389.21547	-364.07013	454.09163	341.64449	-293.04910	458.79545	225.41391	-346.53041	406.95516	113.13162	-289.23748	432.88820	120.13252	-381.14097	479.77568	378.28813	-626.85345	421.74403	306.31940	-694.50570	458.08724	224.13005	-632.82741	435.99758	121.83948	-590.57359	408.52420	118.82701	-680.77043	339.28804	100.33864	-340.37957	562.15423	69.33579	-348.26895	512.49254	59.82026	-257.45166	337.32558	97.13702	-624.41126	567.59488	67.27612	-639.15824	506.14608	53.07851	-724.34705	582.15883	1517.15665	-645.17222	604.24494	1498.29357	-348.15391	629.49723	1413.34369	-472.05565	549.60777	1528.81919	-493.06255	614.49135	1445.74408	-659.76618	497.18235	1495.11605	-669.11236	617.37574	1422.74307	-342.79455	504.94157	1495.06023	-318.38318	552.88677	1487.74164	-247.62414	492.48878	1422.94057	-223.90842	525.79461	1427.93876	-149.88862	507.29852	1387.88513	-46.64682	484.69926	1317.53533	-85.30182	523.36624	1489.03663	-740.08780	483.34741	1404.98510	-764.09926	490.95301	1407.26940	-851.67093	502.87433	1375.74155	-936.78520	490.87352	1309.97300	-896.05164	616.32469	1373.73308	-43.34457	762.75182	1337.86277	-69.00389	742.18454	1271.61488	-57.55920	614.80047	1362.74166	-954.63012	766.15322	1325.02476	-942.74733	753.00622	1255.21109	-943.80719	448.26153	955.49793	-399.87387	440.65788	966.75044	-574.53827	
113	1.13000	507.26593	1050.00255	-632.48106	525.85342	1043.59514	-361.77711	339.54307	1066.06300	-538.67704	345.82966	1062.75147	-440.25858	422.78824	861.44942	-304.82896	504.10893	759.66462	-305.95121	427.00972	639.38847	-320.18751	465.94960	520.04159	-314.07476	455.56702	509.12639	-438.83925	428.70573	862.87327	-679.28168	501.47917	737.25937	-682.32257	445.58563	617.99226	-673.04891	464.89595	526.51649	-676.67577	456.02098	517.13825	-550.61621	482.99610	389.28404	-363.97776	454.07541	341.55665	-293.07326	459.22130	225.55242	-346.45135	406.94346	113.13075	-289.25977	433.72136	120.29997	-381.01755	480.27855	378.32585	-626.76975	423.15188	306.73062	-695.77448	459.14881	224.40011	-633.53497	435.99332	121.85641	-590.68711	409.48791	118.74203	-681.00230	339.30771	100.34457	-340.46981	563.18546	70.17390	-347.78852	513.19569	59.70462	-257.65810	338.25452	96.93022	-624.59717	568.30597	67.62603	-638.74774	507.17999	53.48195	-723.73633	582.45502	1517.09646	-645.08204	604.20078	1498.34463	-348.19777	629.83114	1413.29486	-471.95091	549.94979	1528.77320	-492.96503	614.81768	1445.64119	-659.66341	497.71390	1494.95583	-669.35118	617.31520	1422.79644	-342.86124	504.94819	1495.09423	-318.43324	553.09815	1487.71064	-247.60398	492.47705	1423.02508	-223.94497	525.78977	1427.98015	-149.90640	507.40700	1387.90829	-46.64477	484.71319	1317.53903	-85.27879	523.80639	1488.86575	-740.40661	484.37198	1404.74403	-764.54477	491.97154	1407.04201	-852.10818	503.62844	1375.51739	-937.36046	490.87039	1309.94452	-896.03787	616.31758	1373.77290	-43.36119	762.75358	1337.90670	-69.04191	742.18703	1271.65813	-57.60164	615.08130	1362.64848	-954.56762	766.49894	1324.95209	-942.65838	753.36226	1255.13494	-943.72712	448.39978	955.46584	-399.97119	441.06458	966.68904	-574.64105	
114	1.14000	507.27519	1050.00111	-632.48795	525.91188	1043.59217	-361.75138	341.17148	1065.61966	-539.28976	345.80741	1062.86185	-440.34452	422.77536	861.48045	-304.86437	504.10453	759.68991	-305.98469	426.99569	639.42846	-320.24644	465.90980	520.02787	-314.11940	455.57948	509.13232	-438.83742	430.18812	862.98524	-680.81422	502.00801	737.20535	-682.22711	447.17102	618.35278	-674.76994	465.39068	526.50744	-676.56260	456.01440	517.12833	-550.61632	483.58318	389.34853	-363.88700	454.05373	341.53129	-293.09242	459.70232	225.68116	-346.40577	406.93354	113.13536	-289.29319	434.27955	120.37444	-380.96959	480.64537	378.30770	-626.74454	424.18137	307.00724	-696.78132	460.62883	225.04287	-635.39747	435.98777	121.90330	-590.83787	411.33396	118.39134	-681.17527	339.34351	100.35819	-340.60046	564.58319	71.00626	-347.30281	514.07939	59.50433	-257.95914	339.53235	96.57908	-624.84963	569.53421	68.21165	-638.09156	508.54243	53.97020	-723.02393	582.86016	1516.95319	-645.00425	604.12830	1498.40869	-348.26567	630.28964	1413.21305	-471.80919	550.41642	1528.69419	-492.83052	615.30875	1445.46633	-659.51507	498.40203	1494.73053	-669.66881	617.22223	1422.86929	-342.95226	504.94120	1495.15569	-318.48984	553.38628	1487.66093	-247.58449	492.45916	1423.15463	-223.98452	525.76125	1428.03633	-149.93450	507.60654	1387.91749	-46.64299	484.72382	1317.54041	-85.25364	524.36604	1488.63837	-740.82069	485.76765	1404.43536	-765.16872	493.36242	1406.76327	-852.68474	504.65408	1375.23470	-938.13812	490.85618	1309.92605	-896.03134	616.29581	1373.82930	-43.38928	762.75243	1337.96375	-69.08465	742.19349	1271.71926	-57.64841	615.51954	1362.50299	-954.48921	766.94027	1324.83790	-942.53853	753.79112	1255.04173	-943.60959	448.56288	955.42504	-400.08954	441.54640	966.61503	-574.76473	
115	1.15000	507.28582	1049.99541	-632.49312	525.96823	1043.58447	-361.72378	342.83700	1065.19370	-539.91084	345.74283	1062.96966	-440.37507	422.76470	861.50650	-304.89756	504.09417	759.70952	-306.01439	426.98326	639.45355	-320.29073	465.89100	520.02386	-314.14724	455.58830	509.12837	-438.83221	431.67661	863.10895	-682.27597	502.53292	737.15540	-682.12095	448.73232	618.70704	-676.43206	465.92211	526.47579	-676.47735	456.00637	517.12678	-550.62135	483.91830	389.36969	-363.84563	454.07808	341.56482	-293.07531	460.04236	225.72604	-346.41773	406.93462	113.14875	-289.32038	434.08709	120.23733	-381.09074	480.65735	378.23672	-626.81920	424.10539	306.96641	-696.91777	461.55707	225.63649	-637.31087	435.97882	121.98061	-590.92545	413.80356	117.83600	-681.29712	339.37441	100.37970	-340.69244	565.88871	71.34315	-347.03729	514.88327	59.25044	-258.21229	340.75267	96.17703	-625.11155	571.01713	68.86826	-637.33724	509.80360	54.33763	-722.46158	583.25227	1516.75416	-644.99117	604.06943	1498.45435	-348.31401	630.77828	1413.08904	-471.63754	550.91319	1528.57293	-492.66607	615.86643	1445.25132	-659.35194	499.02671	1494.49521	-669.94006	617.15384	1422.91893	-343.01644	504.92872	1495.21591	-318.52079	553.70835	1487.59478	-247.55075	492.45094	1423.25662	-224.00652	525.74178	1428.08359	-149.95359	507.90735	1387.89003	-46.62315	484.75893	1317.54910	-85.24578	524.88608	1488.40424	-741.21270	487.19765	1404.15470	-765.81416	494.78448	1406.51948	-853.28111	505.69446	1374.96705	-938.93264	490.83857	1309.91969	-896.02897	616.28864	1373.88493	-43.41244	762.76379	1338.01793	-69.11136	742.23321	1271.78268	-57.66860	616.01944	1362.33281	-954.41538	767.34112	1324.71279	-942.43163	754.15154	1254.96808	-943.49276	448.72891	955.38335	-400.19904	442.01321	966.54253	-574.87806	
116	1.16000	507.30008	1049.98885	-632.48847	526.02422	1043.57288	-361.69594	344.09680	1064.90411	-540.37185	345.70434	1063.04135	-440.37910	422.75615	861.51811	-304.92377	504.08273	759.71829	-306.03228	426.97850	639.45782	-320.30837	465.91957	520.04396	-314.14743	455.60205	509.11697	-438.82391	432.77853	863.20861	-683.29559	502.91853	737.12377	-682.03348	449.85804	618.96281	-677.58793	466.33856	526.44100	-676.44219	455.99207	517.13070	-550.62989	483.98663	389.35360	-363.85030	454.13447	341.62469	-293.03700	460.18403	225.69860	-346.45945	406.93853	113.16259	-289.33423	433.41299	119.98211	-381.30432	480.43823	378.16691	-626.93869	423.28698	306.74153	-696.44616	461.21508	225.62120	-637.64682	435.96246	122.07908	-590.92835	415.97505	117.31207	-681.37964	339.38434	100.41484	-340.71346	566.73200	71.18257	-347.05539	515.42959	59.06191	-258.34253	341.56613	95.87739	-625.30903	572.25257	69.37832	-636.72091	510.63890	54.51033	-722.15739	583.52119	1516.58481	-645.03333	604.04345	1498.47378	-348.32720	631.16287	1412.96650	-471.48255	551.30589	1528.45316	-492.51825	616.32958	1445.06739	-659.21256	499.40788	1494.33028	-670.08088	617.12462	1422.93495	-343.04284	504.91732	1495.25411	-318.53294	553.98079	1487.53563	-247.50869	492.44936	1423.30578	-224.01834	525.74857	1428.11730	-149.96270	508.20763	1387.85102	-46.59085	484.82107	1317.56798	-85.25467	525.24280	1488.23200	-741.48903	488.27400	1403.98234	-766.28788	495.85195	1406.37525	-853.73457	506.46670	1374.78586	-939.52614	490.82452	1309.92438	-896.03092	616.30357	1373.93229	-43.42388	762.78444	1338.06517	-69.11945	742.29717	1271.83452	-57.65842	616.43215	1362.19359	-954.35971	767.60346	1324.61780	-942.36076	754.36749	1254.92791	-943.40877	448.85682	955.35334	-400.27291	442.36556	966.49110	-574.95379	
